<?xml version="1.0" standalone="no"?>
<!DOCTYPE svg PUBLIC "-//W3C//DTD SVG 20010904//EN"
 "http://www.w3.org/TR/2001/REC-SVG-20010904/DTD/svg10.dtd">
<svg version="1.0" xmlns="http://www.w3.org/2000/svg"
 width="5996.000000pt" height="3750.000000pt" viewBox="0 0 5996.000000 3750.000000"
 preserveAspectRatio="xMidYMid meet">

<g transform="translate(0.000000,3750.000000) scale(0.100000,-0.100000)"
fill="#000000" stroke="none">
<path d="M0 23739 c0 -13101 1 -13761 17 -13756 60 16 3431 1226 4518 1620
5246 1905 8948 3362 12457 4906 2327 1023 4620 2124 6663 3199 1811 952 3063
1666 5225 2981 1207 733 1827 1103 2415 1438 2090 1193 3750 1919 5387 2357
2125 568 4107 612 5866 131 702 -192 1348 -466 1967 -833 1367 -812 2445
-1988 3039 -3315 241 -539 375 -996 482 -1644 l5 -33 5959 0 5960 0 0 8355 0
8355 -29980 0 -29980 0 0 -13761z"/>
</g>
</svg>
