<svg id="Layer_1" data-name="Layer 1" xmlns="http://www.w3.org/2000/svg" xmlns:xlink="http://www.w3.org/1999/xlink" viewBox="0 0 1439 900"><defs><style>.cls-1{fill:none;}.cls-2{clip-path:url(#clip-path);}.cls-3{fill:#f6f6f6;}.cls-4{fill:#151418;}.cls-5{fill:#242329;}.cls-6{fill:#46454a;}</style><clipPath id="clip-path"><rect class="cls-1" width="1440" height="900"/></clipPath></defs><g class="cls-2"><rect class="cls-3" width="1441" height="900"/><path class="cls-3" d="M1440,364.5V900H3.73V615.9c209.48-72.48,420.18-145.77,614.75-251.4Z"/><path class="cls-4" d="M1441,0V400.93H1154c-9.2-66.82-65-120.27-128-138.68s-131.28-6.56-192.25,18.15S717.25,342,660.49,375.74q-21.72,12.9-43.72,25.19C421.56,510.16,210.17,586,0,660.9V0Z"/><rect class="cls-5" x="149.81" y="-88.6" width="412.85" height="426.92" rx="98.39" transform="translate(242.39 -235.05) rotate(53.13)"/><rect class="cls-5" x="792.73" y="10.57" width="67.01" height="67.3" rx="15.7" transform="translate(365.91 -643.32) rotate(53.13)"/><rect class="cls-6" x="1073.44" y="33.59" width="33.2" height="33.35" rx="7.78" transform="translate(476.27 -851.96) rotate(53.13)"/><rect class="cls-6" x="636.79" y="40.49" width="22.65" height="22.75" rx="5.31" transform="translate(300.76 -497.76) rotate(53.13)"/><rect class="cls-6" x="675.79" y="195.49" width="22.65" height="22.75" rx="5.31" transform="translate(440.36 -466.96) rotate(53.13)"/><rect class="cls-5" x="854.31" y="180.78" width="40.52" height="40.23" rx="9.44" transform="translate(510.58 -619.31) rotate(53.13)"/><rect class="cls-5" x="1002.06" y="116.58" width="53.01" height="52.63" rx="12.35" transform="translate(525.79 -765.72) rotate(53.13)"/><path class="cls-1" d="M3.73,615.9l-4.15,1.44"/><path class="cls-1" d="M1153.91,370.56s0,0,0-.06c-9.17-64.62-64.82-116.31-127.62-134.11S895.43,230,834.66,253.94s-116,59.6-172.61,92.2q-21.64,12.47-43.57,24.36"/></g><rect class="cls-3" x="569" y="576" width="270" height="270" rx="72.57"/></svg>