<?xml version="1.0" standalone="no"?>
<!DOCTYPE svg PUBLIC "-//W3C//DTD SVG 20010904//EN"
 "http://www.w3.org/TR/2001/REC-SVG-20010904/DTD/svg10.dtd">
<svg version="1.0" xmlns="http://www.w3.org/2000/svg"
 width="4688.000000pt" height="10150.000000pt" viewBox="0 0 4688.000000 10150.000000"
 preserveAspectRatio="xMidYMid meet">

<g transform="translate(0.000000,10150.000000) scale(0.100000,-0.100000)"
fill="#000000" stroke="none">
<path d="M0 80015 c0 -14308 3 -21485 10 -21485 7 0 11 -2885 12 -8620 l3
-8619 150 197 c229 300 737 957 1039 1342 5200 6643 10879 12812 17011 18480
951 879 1617 1471 2230 1984 1068 892 2045 1595 2973 2138 581 339 1205 650
1737 863 830 333 1919 548 3195 630 822 52 1774 52 2720 0 3095 -174 6611
-893 8970 -1835 1176 -470 2525 -1214 3720 -2053 1023 -719 1931 -1470 2933
-2429 l177 -170 0 20531 0 20531 -23440 0 -23440 0 0 -21485z"/>
</g>
</svg>
