<svg id="Layer_1" data-name="Layer 1" xmlns="http://www.w3.org/2000/svg" viewBox="0 0 1125 2436"><defs><style>.cls-1{fill:#151418;}.cls-2{fill:#242329;}.cls-3{fill:#f6f6f6;}.cls-4{fill:none;}</style></defs><path class="cls-1" d="M1125.5-.5V1029.71c-44-41.7-93.78-77-149.22-101.27-87.38-38.24-189.94-46.92-278.41-11.3-58.7,23.64-108.32,64.94-155.74,106.83a3617.87,3617.87,0,0,0-432.48,454.69Q53.29,1549.28.5,1622.65V-.5Z"/><rect class="cls-2" x="-484.04" y="-201.63" width="1075.13" height="1134.13" rx="258.11" transform="translate(313.77 103.37) rotate(53.13)"/><rect class="cls-2" x="796.87" y="146.67" width="106.23" height="110.48" rx="25.32" transform="translate(501.56 -599.24) rotate(53.13)"/><path class="cls-3" d="M1125.5,961.49V2444H-14V1586.79q53.44-77.36,110.56-151.85a3755.36,3755.36,0,0,1,438.05-479.5c48-44.18,98.29-87.73,157.75-112.66,89.61-37.56,193.49-28.41,282,11.92C1030.51,880.28,1080.89,917.52,1125.5,961.49Z"/><rect class="cls-2" x="820.67" y="662.47" width="106.62" height="110.88" rx="25.41" transform="translate(923.97 -412.02) rotate(53.13)"/><path class="cls-4" d="M1125.28,1128.8c-103.06-111.4-268.41-160.95-415.75-124.59-146.4,36.13-261.78,145.47-369.85,250.63L-13.78,1598.76"/><path class="cls-4" d="M.5,1622.65Q-64.6,1713.12-124,1807.49"/></svg>